<svg class="icon" aria-hidden="true" xmlns="http://www.w3.org/2000/svg" viewBox="0 0 60 60">
  <path d="M51 3H9C5.7 3 3 5.7 3 9v42c0 3.303 2.7 6 6 6h42c3.3 0 6-2.697 6-6V9c0-3.3-2.7-6-6-6zM29.952 46.569c9.177 0 16.614-7.443 16.614-16.617 0-1.014-.129-1.992-.309-2.952H51v21.648c0 1.146-.93 2.07-2.079 2.07H11.079A2.072 2.072 0 019 48.648V27h4.647c-.183.96-.312 1.938-.312 2.952 0 9.177 7.443 16.617 16.617 16.617zM19.569 29.952c0-5.736 4.65-10.383 10.386-10.383 5.733 0 10.386 4.647 10.386 10.383s-4.653 10.386-10.386 10.386c-5.739 0-10.386-4.65-10.386-10.386zM48.921 18h-4.845A2.08 2.08 0 0142 15.924v-4.851C42 9.927 42.93 9 44.073 9h4.845C50.07 9 51 9.927 51 11.073v4.848C51 17.064 50.07 18 48.921 18z"/>
</svg>
