<svg class="icon" aria-hidden="true" xmlns="http://www.w3.org/2000/svg" viewBox="0 0 60 60">
  <path d="M51.948 18.738c.024.486.033.978.033 1.464 0 14.97-11.391 32.226-32.22 32.226A32.03 32.03 0 012.4 47.337c.888.105 1.788.159 2.7.159a22.73 22.73 0 0014.064-4.845 11.336 11.336 0 01-10.578-7.863 11.575 11.575 0 005.115-.195c-5.181-1.044-9.084-5.619-9.084-11.109v-.141a11.298 11.298 0 005.13 1.419 11.325 11.325 0 01-5.04-9.429c0-2.073.558-4.02 1.536-5.694C11.826 16.494 20.175 21 29.586 21.474a11.439 11.439 0 01-.291-2.583c0-6.252 5.067-11.319 11.322-11.319 3.258 0 6.201 1.371 8.268 3.573a22.806 22.806 0 007.191-2.748 11.367 11.367 0 01-4.98 6.264 22.653 22.653 0 006.504-1.782 22.87 22.87 0 01-5.652 5.859z"/>
</svg>
